<!-- Generated by IcoMoon.io -->
<svg version="1.1" xmlns="http://www.w3.org/2000/svg" width="1024" height="1024" viewBox="0 0 1024 1024">
<title></title>
<g id="icomoon-ignore">
</g>
<path fill="#e12726" d="M0 512.001c0-23.565 19.103-42.667 42.667-42.667h938.667c23.565 0 42.667 19.101 42.667 42.667s-19.101 42.667-42.667 42.667h-938.667c-23.564 0-42.667-19.101-42.667-42.667z"></path>
<path fill="#e12726" d="M567.164 97.831c16.661-16.663 43.677-16.663 60.339 0l384 384c16.661 16.661 16.661 43.677 0 60.339l-384 384c-16.661 16.661-43.677 16.661-60.339 0s-16.661-43.677 0-60.339l353.831-353.831-353.831-353.829c-16.661-16.663-16.661-43.677 0-60.34z"></path>
</svg>
