<!-- Generated by IcoMoon.io -->
<svg version="1.1" xmlns="http://www.w3.org/2000/svg" width="1024" height="1024" viewBox="0 0 1024 1024">
<title></title>
<g id="icomoon-ignore">
</g>
<path d="M970.106 714.105v-94.316h-916.211v94.316c0 29.766 24.13 53.895 53.895 53.895h808.422c29.766 0 53.895-24.129 53.895-53.895zM538.947 821.895v107.789h134.737c14.883 0 26.947 12.064 26.947 26.947s-12.064 26.947-26.947 26.947h-323.369c-14.883 0-26.947-12.064-26.947-26.947s12.064-26.947 26.947-26.947h134.737v-107.789h-377.264c-59.53 0-107.789-48.26-107.789-107.789v-565.895c0-59.53 48.259-107.789 107.789-107.789h808.422c59.529 0 107.789 48.259 107.789 107.789v565.895c0 59.529-48.26 107.789-107.789 107.789h-377.264zM53.894 148.21v417.685h916.211v-417.685c0-29.766-24.129-53.895-53.895-53.895h-808.422c-29.765 0-53.895 24.129-53.895 53.895z"></path>
</svg>
