<svg width="100" height="100" viewBox="0 0 100 100" fill="none" xmlns="http://www.w3.org/2000/svg">
<path d="M50 100C77.6142 100 100 77.6142 100 50L50 0C22.3858 0 0 22.3858 0 50C0 77.6142 22.3858 100 50 100Z" fill="#FFCC80"/>
<path d="M49.5 87C70.2107 87 87 70.2107 87 49.5C87 40.396 77.9376 35.2124 72.5422 28.7169C65.6636 20.4357 61.1067 12 49.5 12C28.7893 12 12 28.7893 12 49.5C12 70.2107 28.7893 87 49.5 87Z" fill="#F0F0F0"/>
<path d="M87 49.5C87 70.2105 70.2105 87 49.5 87C28.7895 87 12 70.2105 12 49.5" fill="#D80027"/>
<path d="M100 50C72.3858 50 50 27.6142 50 0L100 50Z" fill="#CCA366"/>
</svg>
