<!-- Generated by IcoMoon.io -->
<svg version="1.1" xmlns="http://www.w3.org/2000/svg" width="1024" height="1024" viewBox="0 0 1024 1024">
<title></title>
<g id="icomoon-ignore">
</g>
<path fill="#c0c0c0" d="M512.023 0.024c-91.542-0.009-181.408 24.527-260.245 71.049s-143.758 113.331-188.002 193.468c-44.245 80.137-66.195 170.673-63.565 262.171 2.631 91.505 29.746 180.625 78.522 258.089s117.428 140.434 198.808 182.347c81.38 41.914 172.51 61.248 263.899 55.981 91.384-5.266 179.69-34.94 255.715-85.933 76.025-50.987 136.984-121.425 176.539-203.982-28.004 10.376-57.677 15.491-87.534 15.081-90.024 0-140.423-39.404-166.846-72.464-6.155-7.724-11.71-15.9-16.624-24.464-28.156 38.569-67.333 67.706-112.373 83.57s-93.826 17.711-139.934 5.303c-46.112-12.413-87.382-38.5-118.374-74.827s-50.251-81.191-55.242-128.682c-4.991-47.491 4.523-95.38 27.285-137.356s57.708-76.073 100.232-97.799c42.522-21.725 90.632-30.058 137.986-23.902 47.349 6.156 91.73 26.512 127.285 58.386v-20.976c0-10.445 4.149-20.462 11.537-27.847 7.383-7.386 17.402-11.535 27.846-11.535s20.463 4.15 27.846 11.535c7.388 7.386 11.537 17.403 11.537 27.847v196.913c0 71.866 23.913 157.531 137.84 157.531 110.003 0 136.081-79.863 137.745-150.059 0.032-2.488 0.095-4.973 0.095-7.472-0.153-135.736-54.144-265.869-150.127-361.851-95.978-95.981-226.115-149.97-361.849-150.123z"></path>
<path fill="#c0c0c0" d="M512.023 669.53c87.004 0 157.531-70.527 157.531-157.531 0-86.999-70.527-157.53-157.531-157.53s-157.531 70.531-157.531 157.53c0 87.004 70.527 157.531 157.531 157.531z"></path>
</svg>
