<!-- Generated by IcoMoon.io -->
<svg version="1.1" xmlns="http://www.w3.org/2000/svg" width="1024" height="1024" viewBox="0 0 1024 1024">
<title></title>
<g id="icomoon-ignore">
</g>
<path fill="#c0c0c0" d="M974.252 687.712l-240.201-102.945c-12.543-5.399-26.236-7.571-39.83-6.323-13.599 1.253-26.668 5.886-38.013 13.479l-128.432 85.61c-78.493-38.177-142.020-101.431-180.546-179.748l0.010-0.012 85.309-130.355c7.429-11.316 11.931-24.297 13.112-37.781s-0.996-27.050-6.34-39.486l-103.039-240.41c-7.014-16.319-19.125-29.927-34.521-38.786s-33.246-12.494-50.88-10.358c-69.291 8.909-132.969 42.739-179.139 95.172s-71.671 119.879-71.741 189.741c0 407.21 331.284 738.491 738.491 738.491 69.862-0.071 137.311-25.574 189.743-71.743s86.261-109.849 95.167-179.142c2.133-17.637-1.504-35.486-10.366-50.879s-22.466-27.505-38.785-34.523z"></path>
</svg>
