<!-- Generated by IcoMoon.io -->
<svg version="1.1" xmlns="http://www.w3.org/2000/svg" width="1024" height="1024" viewBox="0 0 1024 1024">
<title></title>
<g id="icomoon-ignore">
</g>
<path fill="#e12726" d="M697.897 446.778c0 102.67-83.227 185.898-185.898 185.898-102.668 0-185.898-83.231-185.898-185.898v-206.207c0-102.667 83.231-185.896 185.898-185.896s185.898 83.229 185.898 185.9v206.205zM512 0c-132.865 0-240.574 107.708-240.574 240.573v206.207c0 132.865 107.708 240.574 240.574 240.574s240.574-107.708 240.574-240.574v-206.205c0-132.866-107.708-240.575-240.574-240.575z"></path>
<path fill="#e12726" d="M511.996 178.867c15.099 0 27.338 12.24 27.338 27.338v125.298c0 15.099-12.239 27.338-27.338 27.338-15.096 0-27.338-12.239-27.338-27.338v-125.298c0-15.099 12.242-27.338 27.338-27.338z"></path>
<path fill="#e12726" d="M352.658 739.685c9.060-12.080 26.195-14.527 38.273-5.468l121.069 90.8 121.069-90.8c12.078-9.060 29.213-6.613 38.273 5.468 9.057 12.078 6.61 29.213-5.468 38.273l-137.471 103.103c-9.722 7.291-23.084 7.291-32.805 0l-137.471-103.103c-12.078-9.060-14.525-26.195-5.468-38.273z"></path>
<path fill="#e12726" d="M352.658 877.157c9.060-12.080 26.195-14.527 38.273-5.468l121.069 90.8 121.069-90.8c12.078-9.060 29.213-6.613 38.273 5.468 9.057 12.078 6.61 29.213-5.468 38.273l-137.471 103.103c-9.722 7.289-23.084 7.289-32.805 0l-137.471-103.103c-12.078-9.060-14.525-26.195-5.468-38.273z"></path>
</svg>
