<!-- Generated by IcoMoon.io -->
<svg version="1.1" xmlns="http://www.w3.org/2000/svg" width="1024" height="1024" viewBox="0 0 1024 1024">
<title></title>
<g id="icomoon-ignore">
</g>
<path d="M1013.106 329.533l-490.213-261.447c-6.536-4.358-13.072-4.358-19.609 0l-492.391 261.447c-6.536 4.358-10.894 10.894-10.894 19.609s4.358 15.251 10.894 19.609l102.4 54.468v209.157c0 10.894 4.358 23.966 10.894 32.681 32.681 41.395 152.51 178.655 387.812 178.655 91.506 0 165.583-21.787 224.408-47.932v141.617c0 13.072 8.715 21.787 21.787 21.787s21.787-8.715 21.787-21.787v-165.583c65.362-39.217 104.579-84.97 119.829-106.757 6.536-8.715 10.894-21.787 10.894-32.681v-209.157l102.4-54.468c6.536-4.358 10.894-10.894 10.894-19.609s-4.358-15.251-10.894-19.609zM511.999 802.315c-213.515 0-322.451-124.187-352.953-161.226-2.178-2.178-2.178-4.358-2.178-6.536v-187.37l344.239 183.013c4.358 2.178 6.536 2.178 10.894 2.178s6.536 0 10.894-2.178l213.515-113.293v230.944c-56.647 30.502-130.723 54.468-224.408 54.468zM867.13 632.375c0 2.178 0 4.358-2.178 6.536-13.072 17.43-39.217 50.111-84.97 80.612v-226.587l87.149-45.753v185.191zM756.016 455.898l-235.302-124.187c-10.894-6.536-23.966-2.178-30.502 8.715s-2.178 23.966 8.715 30.502l209.157 111.115-196.085 104.579-444.459-237.48 444.459-237.48 444.459 237.48-200.443 106.757z"></path>
</svg>
