<!-- Generated by IcoMoon.io -->
<svg version="1.1" xmlns="http://www.w3.org/2000/svg" width="1024" height="1024" viewBox="0 0 1024 1024">
<title></title>
<g id="icomoon-ignore">
</g>
<path d="M324.681 56.195c13.794 0 24.975 11.182 24.975 24.975v87.415h274.731c13.794 0 24.975 11.182 24.975 24.975s-11.182 24.975-24.975 24.975h-125.535c-6.109 115.971-54.586 225.996-136.661 308.892 5.564 4.366 11.246 8.599 17.046 12.695 67.553 47.735 147.48 74.642 229.927 77.593l105.272-210.546c4.231-8.462 12.88-13.806 22.341-13.806 9.458 0 18.108 5.344 22.339 13.806l187.079 374.159c0.172 0.324 0.335 0.652 0.492 0.981l74.671 149.346c6.169 12.338 1.168 27.338-11.169 33.507s-27.341 1.168-33.51-11.169l-68.023-136.047h-343.761l-68.023 136.047c-6.169 12.338-21.171 17.338-33.507 11.169-12.338-6.169-17.338-21.169-11.171-33.507l132.682-265.363c-84.13-7.021-165.128-36.384-234.465-85.376-8.799-6.217-17.363-12.718-25.68-19.486-84.279 68.681-190.061 106.663-299.757 106.663-13.794 0-24.975-11.182-24.975-24.975s11.182-24.975 24.975-24.975c95.592 0 187.861-32.236 262.273-90.688-49.052-49.474-86.86-109.393-110.352-175.698-4.606-13 2.2-27.276 15.203-31.881 13-4.606 27.276 2.197 31.881 15.2 21.337 60.221 55.871 114.556 100.728 159.201 0.165-0.163 0.327-0.327 0.492-0.492 73.717-73.717 117.529-171.752 123.624-275.25h-423.849c-13.794 0-24.975-11.182-24.975-24.975s11.182-24.975 24.975-24.975h274.731v-87.415c0-13.794 11.182-24.975 24.975-24.975zM883.681 767.997l-146.904-293.809-146.906 293.809h293.809z"></path>
</svg>
