<!-- Generated by IcoMoon.io -->
<svg version="1.1" xmlns="http://www.w3.org/2000/svg" width="1024" height="1024" viewBox="0 0 1024 1024">
<title></title>
<g id="icomoon-ignore">
</g>
<path fill="#c0c0c0" d="M1018.753 941.088c-72.779-125.358-189.337-219.377-327.254-263.983 66.075-39.312 117.411-99.229 146.135-170.547 28.719-71.318 33.233-150.091 12.846-224.221s-64.546-139.52-125.696-186.122c-61.149-46.603-135.905-71.842-212.787-71.842s-151.639 25.24-212.789 71.842c-61.148 46.603-105.307 111.992-125.693 186.122s-15.873 152.904 12.847 224.221c28.72 71.318 80.058 131.235 146.13 170.547-137.912 44.606-254.466 138.62-327.247 263.972-3.43 5.929-5.239 12.654-5.245 19.503-0.005 6.854 1.794 13.585 5.216 19.518s8.347 10.859 14.278 14.287c5.931 3.428 12.66 5.232 19.51 5.232l945.991 0.011c6.849 0 13.579-1.805 19.514-5.232 5.929-3.428 10.854-8.352 14.276-14.287s5.222-12.663 5.216-19.518c-0.005-6.849-1.815-13.574-5.247-19.503v0z"></path>
</svg>
